<svg xmlns="http://www.w3.org/2000/svg" xmlns:xlink="http://www.w3.org/1999/xlink" version="1.1" class="marks" width="479" height="347" viewBox="0 0 479 347"><rect width="479" height="347" fill="white"/><g fill="none" stroke-miterlimit="10" transform="translate(72,10)"><g class="mark-group role-frame root" role="graphics-object" aria-roledescription="group mark container"><g transform="translate(0,0)"><path class="background" aria-hidden="true" d="M0.5,0.5h400v300h-400Z" stroke="#ddd"/><g><g class="mark-group role-axis" role="graphics-symbol" aria-roledescription="axis" aria-label="X-axis for a linear scale with values from 1 to 134"><g transform="translate(0.5,300.5)"><path class="background" aria-hidden="true" d="M0,0h0v0h0Z" pointer-events="none"/><g><g class="mark-rule role-axis-grid" pointer-events="none"><line transform="translate(27,-300)" x2="0" y2="300" stroke="#ddd" stroke-width="1" opacity="1"/><line transform="translate(57,-300)" x2="0" y2="300" stroke="#ddd" stroke-width="1" opacity="1"/><line transform="translate(87,-300)" x2="0" y2="300" stroke="#ddd" stroke-width="1" opacity="1"/><line transform="translate(117,-300)" x2="0" y2="300" stroke="#ddd" stroke-width="1" opacity="1"/><line transform="translate(147,-300)" x2="0" y2="300" stroke="#ddd" stroke-width="1" opacity="1"/><line transform="translate(177,-300)" x2="0" y2="300" stroke="#ddd" stroke-width="1" opacity="1"/><line transform="translate(208,-300)" x2="0" y2="300" stroke="#ddd" stroke-width="1" opacity="1"/><line transform="translate(238,-300)" x2="0" y2="300" stroke="#ddd" stroke-width="1" opacity="1"/><line transform="translate(268,-300)" x2="0" y2="300" stroke="#ddd" stroke-width="1" opacity="1"/><line transform="translate(298,-300)" x2="0" y2="300" stroke="#ddd" stroke-width="1" opacity="1"/><line transform="translate(328,-300)" x2="0" y2="300" stroke="#ddd" stroke-width="1" opacity="1"/><line transform="translate(358,-300)" x2="0" y2="300" stroke="#ddd" stroke-width="1" opacity="1"/><line transform="translate(388,-300)" x2="0" y2="300" stroke="#ddd" stroke-width="1" opacity="1"/></g></g><path class="foreground" aria-hidden="true" d="" pointer-events="none" display="none"/></g></g><g class="mark-group role-axis" role="graphics-symbol" aria-roledescription="axis" aria-label="Y-axis for a linear scale with values from 0 to 3,500,000"><g transform="translate(0.5,0.5)"><path class="background" aria-hidden="true" d="M0,0h0v0h0Z" pointer-events="none"/><g><g class="mark-rule role-axis-grid" pointer-events="none"><line transform="translate(0,300)" x2="400" y2="0" stroke="#ddd" stroke-width="1" opacity="1"/><line transform="translate(0,257)" x2="400" y2="0" stroke="#ddd" stroke-width="1" opacity="1"/><line transform="translate(0,214)" x2="400" y2="0" stroke="#ddd" stroke-width="1" opacity="1"/><line transform="translate(0,171)" x2="400" y2="0" stroke="#ddd" stroke-width="1" opacity="1"/><line transform="translate(0,129)" x2="400" y2="0" stroke="#ddd" stroke-width="1" opacity="1"/><line transform="translate(0,86)" x2="400" y2="0" stroke="#ddd" stroke-width="1" opacity="1"/><line transform="translate(0,43)" x2="400" y2="0" stroke="#ddd" stroke-width="1" opacity="1"/><line transform="translate(0,0)" x2="400" y2="0" stroke="#ddd" stroke-width="1" opacity="1"/></g></g><path class="foreground" aria-hidden="true" d="" pointer-events="none" display="none"/></g></g><g class="mark-group role-axis" role="graphics-symbol" aria-roledescription="axis" aria-label="X-axis titled 'Week' for a linear scale with values from 1 to 134"><g transform="translate(0.5,300.5)"><path class="background" aria-hidden="true" d="M0,0h0v0h0Z" pointer-events="none"/><g><g class="mark-rule role-axis-tick" pointer-events="none"><line transform="translate(27,0)" x2="0" y2="5" stroke="#888" stroke-width="1" opacity="1"/><line transform="translate(57,0)" x2="0" y2="5" stroke="#888" stroke-width="1" opacity="1"/><line transform="translate(87,0)" x2="0" y2="5" stroke="#888" stroke-width="1" opacity="1"/><line transform="translate(117,0)" x2="0" y2="5" stroke="#888" stroke-width="1" opacity="1"/><line transform="translate(147,0)" x2="0" y2="5" stroke="#888" stroke-width="1" opacity="1"/><line transform="translate(177,0)" x2="0" y2="5" stroke="#888" stroke-width="1" opacity="1"/><line transform="translate(208,0)" x2="0" y2="5" stroke="#888" stroke-width="1" opacity="1"/><line transform="translate(238,0)" x2="0" y2="5" stroke="#888" stroke-width="1" opacity="1"/><line transform="translate(268,0)" x2="0" y2="5" stroke="#888" stroke-width="1" opacity="1"/><line transform="translate(298,0)" x2="0" y2="5" stroke="#888" stroke-width="1" opacity="1"/><line transform="translate(328,0)" x2="0" y2="5" stroke="#888" stroke-width="1" opacity="1"/><line transform="translate(358,0)" x2="0" y2="5" stroke="#888" stroke-width="1" opacity="1"/><line transform="translate(388,0)" x2="0" y2="5" stroke="#888" stroke-width="1" opacity="1"/></g><g class="mark-text role-axis-label" pointer-events="none"><text text-anchor="middle" transform="translate(27.06766917293233,15)" font-family="sans-serif" font-size="10px" fill="#000" opacity="1">10</text><text text-anchor="middle" transform="translate(57.14285714285714,15)" font-family="sans-serif" font-size="10px" fill="#000" opacity="1">20</text><text text-anchor="middle" transform="translate(87.21804511278195,15)" font-family="sans-serif" font-size="10px" fill="#000" opacity="1">30</text><text text-anchor="middle" transform="translate(117.29323308270676,15)" font-family="sans-serif" font-size="10px" fill="#000" opacity="1">40</text><text text-anchor="middle" transform="translate(147.36842105263156,15)" font-family="sans-serif" font-size="10px" fill="#000" opacity="1">50</text><text text-anchor="middle" transform="translate(177.4436090225564,15)" font-family="sans-serif" font-size="10px" fill="#000" opacity="1">60</text><text text-anchor="middle" transform="translate(207.5187969924812,15)" font-family="sans-serif" font-size="10px" fill="#000" opacity="1">70</text><text text-anchor="middle" transform="translate(237.593984962406,15)" font-family="sans-serif" font-size="10px" fill="#000" opacity="1">80</text><text text-anchor="middle" transform="translate(267.6691729323308,15)" font-family="sans-serif" font-size="10px" fill="#000" opacity="1">90</text><text text-anchor="middle" transform="translate(297.74436090225566,15)" font-family="sans-serif" font-size="10px" fill="#000" opacity="1">100</text><text text-anchor="middle" transform="translate(327.81954887218046,15)" font-family="sans-serif" font-size="10px" fill="#000" opacity="1">110</text><text text-anchor="middle" transform="translate(357.89473684210526,15)" font-family="sans-serif" font-size="10px" fill="#000" opacity="1">120</text><text text-anchor="middle" transform="translate(387.96992481203006,15)" font-family="sans-serif" font-size="10px" fill="#000" opacity="1">130</text></g><g class="mark-rule role-axis-domain" pointer-events="none"><line transform="translate(0,0)" x2="400" y2="0" stroke="#888" stroke-width="1" opacity="1"/></g><g class="mark-text role-axis-title" pointer-events="none"><text text-anchor="middle" transform="translate(200,30)" font-family="sans-serif" font-size="11px" font-weight="bold" fill="#000" opacity="1">Week</text></g></g><path class="foreground" aria-hidden="true" d="" pointer-events="none" display="none"/></g></g><g class="mark-group role-axis" role="graphics-symbol" aria-roledescription="axis" aria-label="Y-axis titled 'Decks Registered' for a linear scale with values from 0 to 3,500,000"><g transform="translate(0.5,0.5)"><path class="background" aria-hidden="true" d="M0,0h0v0h0Z" pointer-events="none"/><g><g class="mark-rule role-axis-tick" pointer-events="none"><line transform="translate(0,300)" x2="-5" y2="0" stroke="#888" stroke-width="1" opacity="1"/><line transform="translate(0,257)" x2="-5" y2="0" stroke="#888" stroke-width="1" opacity="1"/><line transform="translate(0,214)" x2="-5" y2="0" stroke="#888" stroke-width="1" opacity="1"/><line transform="translate(0,171)" x2="-5" y2="0" stroke="#888" stroke-width="1" opacity="1"/><line transform="translate(0,129)" x2="-5" y2="0" stroke="#888" stroke-width="1" opacity="1"/><line transform="translate(0,86)" x2="-5" y2="0" stroke="#888" stroke-width="1" opacity="1"/><line transform="translate(0,43)" x2="-5" y2="0" stroke="#888" stroke-width="1" opacity="1"/><line transform="translate(0,0)" x2="-5" y2="0" stroke="#888" stroke-width="1" opacity="1"/></g><g class="mark-text role-axis-label" pointer-events="none"><text text-anchor="end" transform="translate(-7,303)" font-family="sans-serif" font-size="10px" fill="#000" opacity="1">0</text><text text-anchor="end" transform="translate(-7,260.14285714285717)" font-family="sans-serif" font-size="10px" fill="#000" opacity="1">500,000</text><text text-anchor="end" transform="translate(-7,217.28571428571428)" font-family="sans-serif" font-size="10px" fill="#000" opacity="1">1,000,000</text><text text-anchor="end" transform="translate(-7,174.42857142857142)" font-family="sans-serif" font-size="10px" fill="#000" opacity="1">1,500,000</text><text text-anchor="end" transform="translate(-7,131.57142857142858)" font-family="sans-serif" font-size="10px" fill="#000" opacity="1">2,000,000</text><text text-anchor="end" transform="translate(-7,88.71428571428571)" font-family="sans-serif" font-size="10px" fill="#000" opacity="1">2,500,000</text><text text-anchor="end" transform="translate(-7,45.85714285714287)" font-family="sans-serif" font-size="10px" fill="#000" opacity="1">3,000,000</text><text text-anchor="end" transform="translate(-7,3)" font-family="sans-serif" font-size="10px" fill="#000" opacity="1">3,500,000</text></g><g class="mark-rule role-axis-domain" pointer-events="none"><line transform="translate(0,300)" x2="0" y2="-300" stroke="#888" stroke-width="1" opacity="1"/></g><g class="mark-text role-axis-title" pointer-events="none"><text text-anchor="middle" transform="translate(-55.4873046875,150) rotate(-90) translate(0,-2)" font-family="sans-serif" font-size="11px" font-weight="bold" fill="#000" opacity="1">Decks Registered</text></g></g><path class="foreground" aria-hidden="true" d="" pointer-events="none" display="none"/></g></g><g class="mark-area role-mark layer_0_marks" role="graphics-symbol" aria-roledescription="area mark container"><path d="M0,289.94939672488084L3.007518796992481,285.2414886864328L6.015037593984962,279.23772029343417L9.022556390977442,275.17772050498303L12.030075187969924,271.9318594916204L15.037593984962406,268.69395002137907L18.045112781954884,266.33378101550954L21.052631578947366,264.39987757161197L24.06015037593985,261.027890504392L27.06766917293233,259.1033574585702L30.075187969924812,258.118174709173L33.08270676691729,255.61907308052068L36.09022556390977,253.83764377975405L39.097744360902254,253.14877084053674L42.10526315789473,251.94051250482244L45.11278195488722,248.76808349823654L48.1203007518797,249.30992185868496L51.127819548872175,246.70819063483617L54.13533834586466,246.33057757307242L57.14285714285714,243.26998526094516L60.150375939849624,242.55857650752014L63.1578947368421,240.2430192914912L66.16541353383458,238.69994704165038L69.17293233082707,237.31853899362582L72.18045112781954,236.53699279837247L75.18796992481202,235.2045888061875L78.19548872180451,233.700649461095L81.203007518797,232.43042928874306L84.21052631578947,229.32789276175905L87.21804511278195,226.90374099149244L90.22556390977444,224.1682500665265L93.23308270676691,223.10450309078033L96.2406015037594,220.74693322300567L99.24812030075188,217.5120011049414L102.25563909774435,216.62254975905967L105.26315789473684,213.71776243050522L108.27067669172932,214.38890781287077L111.27819548872179,210.95240850948247L114.28571428571428,209.72242245709805L117.29323308270676,208.18026906341782L120.30075187969925,205.35677681331447L123.30827067669172,206.77748781967324L126.3157894736842,204.06256725508277L129.32330827067668,203.71940951680548L132.33082706766916,201.8509008741712L135.33834586466165,200.04698057749786L138.34586466165413,198.09577785893336L141.35338345864662,197.7017035763637L144.36090225563908,195.59932782626802L147.36842105263156,194.58590651643178L150.37593984962405,195.06732766282937L153.38345864661653,190.47761152770718L156.39097744360902,189.4305448736222L159.3984962406015,186.0068017170594L162.406015037594,183.73940825991482L165.41353383458645,184.20922445005996L168.42105263157893,181.3964111176561L171.42857142857142,182.25813311654568L174.4360902255639,178.95520314130968L177.4436090225564,177.0033914583046L180.45112781954887,175.7563261654397L183.45864661654133,174.4623336631531L186.46616541353382,172.282214675334L189.4736842105263,171.1182740522752L192.4812030075188,170.3005607034643L195.48872180451127,169.442435250157L198.49624060150376,167.7138243489936L201.50375939849624,166.21794792864918L204.5112781954887,167.38551697277083L207.5187969924812,163.51436073057454L210.52631578947367,163.88454240390945L213.53383458646618,162.40348549834044L216.54135338345864,161.69604349800454L219.54887218045113,158.116586869011L222.55639097744358,158.95535772882494L225.5639097744361,156.30535645449393L228.57142857142856,154.68722543451904L231.57894736842107,152.3437843162136L234.58646616541353,153.5277361618758L237.593984962406,152.847501042795L240.6015037593985,151.75396327245235L243.60902255639098,149.46545624685746L246.61654135338344,149.41093133698277L249.62406015037595,146.71443081848358L252.6315789473684,145.0996951991158L255.63909774436092,145.86511700539026L258.64661654135335,140.8598992275033L261.6541353383459,140.2589170654129L264.6616541353383,138.4853279568652L267.6691729323308,136.31200167342288L270.6766917293233,135.19220304427662L273.6842105263158,133.49697590322612L276.69172932330827,131.61313119212943L279.69924812030075,129.0191003313529L282.70676691729324,128.624137032841L285.7142857142857,127.47485712427333L288.72180451127815,125.6342688702686L291.7293233082707,123.3690678608433L294.7368421052631,122.22756826519354L297.74436090225566,122.62979099749865L300.7518796992481,119.0691448920782L303.7593984962406,118.67405220774181L306.76691729323306,117.57219240467528L309.77443609022555,116.18425033218833L312.78195488721803,116.0390942075903L315.7894736842105,112.53072762440223L318.796992481203,112.91843288300495L321.8045112781955,111.98626426028925L324.812030075188,110.75878679998391L327.81954887218046,109.8637725965328L330.8270676691729,107.5521692577593L333.83458646616543,106.23741419944831L336.84210526315786,105.79805498217361L339.8496240601504,103.46216532097479L342.85714285714283,102.77628210076449L345.8646616541353,101.93707895820356L348.8721804511278,100.95163643953386L351.8796992481203,99.7253165031842L354.8872180451128,99.05912269105339L357.89473684210526,96.93383858538847L360.90225563909775,95.71315003567372L363.90977443609023,96.40020431507446L366.91729323308266,93.13649950551826L369.9248120300752,92.46939225268234L372.93233082706763,90.51559414233313L375.9398496240602,89.17913829601926L378.9473684210526,90.23780215281674L381.9548872180451,89.06179028729716L384.9624060150376,85.02608517712402L387.96992481203006,81.63643069085909L390.97744360902254,80.58555017916271L393.98496240601503,78.62193290866666L396.9924812030075,76.71472099397153L400,75.353388969692L400,12.800653123741547L396.9924812030075,13.72578965412248L393.98496240601503,13.150961775787366L390.97744360902254,15.73058678037242L387.96992481203006,19.905630000752907L384.9624060150376,22.455730964833222L381.9548872180451,24.222770323247232L378.9473684210526,28.061877153362587L375.9398496240602,29.5685514934558L372.93233082706763,31.167744376104267L369.9248120300752,32.61086833603868L366.91729323308266,33.80350476104932L363.90977443609023,35.77166272987714L360.90225563909775,35.99580091948966L357.89473684210526,38.62444630199706L354.8872180451128,39.17177941884275L351.8796992481203,40.81419324838792L348.8721804511278,42.28975654508248L345.8646616541353,44.1400369483649L342.85714285714283,45.20897750324488L339.8496240601504,46.811699583648625L336.84210526315786,49.03950280106054L333.83458646616543,50.834671100491406L330.8270676691729,50.16959746602721L327.81954887218046,53.410141395004985L324.812030075188,54.989590835674754L321.8045112781955,55.94999172085933L318.796992481203,58.00066837321498L315.7894736842105,58.82443401569819L312.78195488721803,61.10548855201827L309.77443609022555,64.02465692733679L306.76691729323306,64.70921303261898L303.7593984962406,66.08474176982227L300.7518796992481,66.6788866115287L297.74436090225566,68.16329559400022L294.7368421052631,70.29969241649908L291.7293233082707,72.73208383606222L288.72180451127815,74.08728262346199L285.7142857142857,76.90545168720543L282.70676691729324,77.32470017961938L279.69924812030075,79.84694840836235L276.69172932330827,81.46449383682271L273.6842105263158,83.63272553900664L270.6766917293233,86.40998643719094L267.6691729323308,87.90514920258306L264.6616541353383,90.34588307254903L261.6541353383459,92.49139245405273L258.64661654135335,96.13496769519674L255.63909774436092,99.59915347924752L252.6315789473684,99.1462653794843L249.62406015037595,102.87057298220031L246.61654135338344,102.03333885569144L243.60902255639098,104.81870552303673L240.6015037593985,106.4367589058459L237.593984962406,108.68263705477604L234.58646616541353,107.64209494460046L231.57894736842107,111.40998680280941L228.57142857142856,112.0655390809406L225.5639097744361,114.38113338758997L222.55639097744358,114.41225195950899L219.54887218045113,117.51881403320748L216.54135338345864,120.08566416209499L213.53383458646618,120.32366614632522L210.52631578947367,120.20148098858095L207.5187969924812,121.43836461975846L204.5112781954887,123.77802811264958L201.50375939849624,125.82239314984989L198.49624060150376,126.74864854714563L195.48872180451127,127.1640837803175L192.4812030075188,131.09867702635634L189.4736842105263,130.8064659055238L186.46616541353382,132.83095966560845L183.45864661654133,135.95671403149515L180.45112781954887,138.81017119492077L177.4436090225564,139.33261999053616L174.4360902255639,142.1379951611464L171.42857142857142,143.58478139601587L168.42105263157893,146.0950924359276L165.41353383458645,148.13150022468668L162.406015037594,148.60628035837115L159.3984962406015,149.87087242511075L156.39097744360902,153.92002981171507L153.38345864661653,157.09549724344026L150.37593984962405,161.26918190073556L147.36842105263156,162.39702943193424L144.36090225563908,163.07618380872574L141.35338345864662,165.65088597014588L138.34586466165413,167.13283033541663L135.33834586466165,168.6830460094105L132.33082706766916,169.9036988051449L129.32330827067668,172.29096867129232L126.3157894736842,173.10842808696046L123.30827067669172,173.99152471735843L120.30075187969925,177.23814113329058L117.29323308270676,179.85628103934238L114.28571428571428,179.61926598954042L111.27819548872179,182.13658427079537L108.27067669172932,186.12350225437177L105.26315789473684,186.6434695224297L102.25563909774435,190.3163268379339L99.24812030075188,192.36186096906164L96.2406015037594,195.29725298753198L93.23308270676691,196.1455092990949L90.22556390977444,200.62359264881533L87.21804511278195,203.74840485989873L84.21052631578947,208.63032411370034L81.203007518797,212.86049676285398L78.19548872180451,214.82290562224924L75.18796992481202,215.51978495206518L72.18045112781954,217.07889889252797L69.17293233082707,217.82139584687084L66.16541353383458,220.38354785837873L63.1578947368421,222.38569035461754L60.150375939849624,223.74258072070964L57.14285714285714,225.1569669439045L54.13533834586466,226.9385456819278L51.127819548872175,228.37917345266612L48.1203007518797,229.7183863485035L45.11278195488722,231.9486824933915L42.10526315789473,232.97778133438823L39.097744360902254,235.5737212898858L36.09022556390977,238.27519888694633L33.08270676691729,241.11667586093023L30.075187969924812,243.6970453917463L27.06766917293233,244.81355219335018L24.06015037593985,249.1517766512223L21.052631578947366,251.48694027431878L18.045112781954884,255.0454171508431L15.037593984962406,259.03548592526266L12.030075187969924,262.7591658667532L9.022556390977442,266.9620395475765L6.015037593984962,272.95403918565574L3.007518796992481,277.6396336212301L0,283.3509457231079Z" fill="#333333" opacity="0.2"/></g><g class="mark-line role-mark layer_1_marks" role="graphics-symbol" aria-roledescription="line mark container"><path d="M0,287.1378600418036L3.007518796992481,281.17344920196655L6.015037593984962,276.05420776316237L9.022556390977442,271.4553889931345L12.030075187969924,267.3728039930901L15.037593984962406,263.8100548387595L18.045112781954884,260.51107222199306L21.052631578947366,257.534677597269L24.06015037593985,254.9462351662513L27.06766917293233,252.3916273408326L30.075187969924812,249.99941812086368L33.08270676691729,247.90592605452952L36.09022556390977,246.04577391258127L39.097744360902254,244.0652197702548L42.10526315789473,242.3193737407978L45.11278195488722,240.5482963059013L48.1203007518797,238.85763980654323L51.127819548872175,237.29898385804375L54.13533834586466,235.6638679916916L57.14285714285714,234.1835444854476L60.150375939849624,232.59971191652414L63.1578947368421,231.21521730055042L66.16541353383458,229.6946862809458L69.17293233082707,228.25154999302205L72.18045112781954,226.8600865629944L75.18796992481202,225.46634708742243L78.19548872180451,224.10104787430504L81.203007518797,222.72096836407644L84.21052631578947,219.13518906004964L87.21804511278195,215.79442983837006L90.22556390977444,212.87212646614904L93.23308270676691,210.12091179019032L96.2406015037594,207.63534313010123L99.24812030075188,205.28380439717472L102.25563909774435,203.22987937149048L105.26315789473684,201.14088635870993L108.27067669172932,199.31132547924778L111.27819548872179,197.465368879015L114.28571428571428,195.812037085244L117.29323308270676,194.00144804999985L120.30075187969925,192.4801205559791L123.30827067669172,190.95284364011619L126.3157894736842,189.33883593902465L129.32330827067668,187.78961162135712L132.33082706766916,186.34090424461226L135.33834586466165,184.92135226014247L138.34586466165413,183.4459223021195L141.35338345864662,182.09279869864562L144.36090225563908,180.76048076225788L147.36842105263156,179.30613400627269L150.37593984962405,177.93321274255777L153.38345864661653,175.19162928562451L156.39097744360902,172.84657042754085L159.3984962406015,170.5558702957918L162.406015037594,168.51469219715145L165.41353383458645,166.52059495357264L168.42105263157893,164.64559183460355L171.42857142857142,162.8877257333701L174.4360902255639,161.2050198629567L177.4436090225564,159.6013454193774L180.45112781954887,157.90984216809102L183.45864661654133,156.28061927699042L186.46616541353382,154.78799504547612L189.4736842105263,153.32544711665895L192.4812030075188,151.81389696465618L195.48872180451127,150.41520346541054L198.49624060150376,149.04571944803143L201.50375939849624,147.57212669110197L204.5112781954887,146.19583528404098L207.5187969924812,144.80539078900182L210.52631578947367,143.4411074189819L213.53383458646618,142.03306295343344L216.54135338345864,140.66690848923878L219.54887218045113,139.2684342041029L222.55639097744358,138.04575595887275L225.5639097744361,136.5867753608706L228.57142857142856,135.30836825249588L231.57894736842107,133.90028783857318L234.58646616541353,132.55337526712907L237.593984962406,131.25801050289135L240.6015037593985,129.8386048443001L243.60902255639098,128.64718687823506L246.61654135338344,127.251293155746L249.62406015037595,125.86604713975356L252.6315789473684,124.56863756650056L255.63909774436092,123.14739790221192L258.64661654135335,120.62072550804169L261.6541353383459,118.26695850130577L264.6616541353383,116.0611566000956L267.6691729323308,113.88691190223187L270.6766917293233,112.00419826615715L273.6842105263158,110.06897354851519L276.69172932330827,108.31103556749062L279.69924812030075,106.62072001417043L282.70676691729324,105.0059505452614L285.7142857142857,103.32944172144812L288.72180451127815,101.82207892776294L291.7293233082707,100.35625430847578L294.7368421052631,98.85313879914753L297.74436090225566,97.29949971014783L300.7518796992481,95.85595511398084L303.7593984962406,94.46950932935327L306.76691729323306,93.1108472972488L309.77443609022555,91.59027766535132L312.78195488721803,90.26543407004385L315.7894736842105,89.0220612736758L318.796992481203,87.52127576873784L321.8045112781955,86.22343100314689L324.812030075188,84.8041450332263L327.81954887218046,83.47644166910113L330.8270676691729,82.03112018216675L333.83458646616543,80.74213353834203L336.84210526315786,79.51327882264945L339.8496240601504,78.11364871548165L342.85714285714283,76.73144865204277L345.8646616541353,75.41850060377507L348.8721804511278,74.02692037005119L351.8796992481203,72.7219063006315L354.8872180451128,71.44872722704532L357.89473684210526,70.03807698145015L360.90225563909775,68.65199088433083L363.90977443609023,67.45094134522697L366.91729323308266,66.0806579106193L369.9248120300752,64.78922948650619L372.93233082706763,63.459546253444046L375.9398496240602,62.1190275688291L378.9473684210526,60.690468248724706L381.9548872180451,58.17406345860452L384.9624060150376,55.81567918313218L387.96992481203006,53.52252366614343L390.97744360902254,51.445020824542084L393.98496240601503,49.55875838843997L396.9924812030075,47.70082324408914L400,45.94798521156388" stroke="#333333" stroke-width="2" opacity="0.7"/></g><g class="mark-line role-mark layer_2_marks" role="graphics-symbol" aria-roledescription="line mark container"><path d="M0,286.45577142857144L3.007518796992481,281.25145714285713L6.015037593984962,277.0263428571428L9.022556390977442,273.2661428571429L12.030075187969924,269.30588571428575L15.037593984962406,264.822L18.045112781954884,261.5022L21.052631578947366,258.4514571428572L24.06015037593985,255.86785714285713L27.06766917293233,253.50154285714282L30.075187969924812,251.36657142857143L33.08270676691729,249.57668571428573L36.09022556390977,247.47411428571428L39.097744360902254,245.3394L42.10526315789473,243.3054857142857L45.11278195488722,241.4742857142857L48.1203007518797,239.5644L51.127819548872175,237.7175142857143L54.13533834586466,235.98874285714285L57.14285714285714,234.38682857142857L60.150375939849624,233.05474285714288L63.1578947368421,231.7422L66.16541353383458,230.6892L69.17293233082707,229.69697142857143L72.18045112781954,228.72899999999998L75.18796992481202,227.8187142857143L78.19548872180451,226.97502857142857L81.203007518797,222.17785714285714L84.21052631578947,217.71077142857143L87.21804511278195,214.82999999999998L90.22556390977444,212.28514285714286L93.23308270676691,210.1191428571429L96.2406015037594,208.27448571428573L99.24812030075188,206.46471428571428L102.25563909774435,204.6707142857143L105.26315789473684,202.83745714285712L108.27067669172932,200.57580000000002L111.27819548872179,198.48839999999998L114.28571428571428,196.76862857142856L117.29323308270676,195.14502857142855L120.30075187969925,193.5498L123.30827067669172,192.2202L126.3157894736842,191.01205714285715L129.32330827067668,189.84985714285716L132.33082706766916,188.7646285714286L135.33834586466165,187.63500000000002L138.34586466165413,186.56597142857146L141.35338345864662,185.53011428571432L144.36090225563908,184.41754285714285L147.36842105263156,183.31920000000002L150.37593984962405,179.69400000000002L153.38345864661653,175.5948857142857L156.39097744360902,173.07899999999998L159.3984962406015,171.24694285714287L162.406015037594,168.95708571428568L165.41353383458645,167.05868571428573L168.42105263157893,165.3700285714286L171.42857142857142,163.25811428571427L174.4360902255639,161.64051428571426L177.4436090225564,160.1177142857143L180.45112781954887,158.67634285714286L183.45864661654133,157.30028571428568L186.46616541353382,155.8962L189.4736842105263,154.65488571428568L192.4812030075188,153.0966L195.48872180451127,152.01882857142857L198.49624060150376,151.0014L201.50375939849624,149.95654285714284L204.5112781954887,149.13754285714285L207.5187969924812,148.55734285714286L210.52631578947367,148.14197142857142L213.53383458646618,147.78617142857144L216.54135338345864,147.44674285714285L219.54887218045113,147.08434285714287L222.55639097744358,146.74028571428573L225.5639097744361,146.40548571428573L228.57142857142856,146.0773714285714L231.57894736842107,145.62454285714284L234.58646616541353,145.22751428571428L237.593984962406,144.44391428571427L240.6015037593985,143.5001142857143L243.60902255639098,142.8594L246.61654135338344,142.25879999999998L249.62406015037595,141.80537142857145L252.6315789473684,141.29417142857142L255.63909774436092,138.68494285714286L258.64661654135335,135.54094285714285L261.6541353383459,133.34374285714284L264.6616541353383,131.75202857142858L267.6691729323308,130.5677142857143L270.6766917293233,129.6786857142857L273.6842105263158,128.84211428571427L276.69172932330827,128.12185714285715L279.69924812030075,127.34142857142858L282.70676691729324,126.66317142857143L285.7142857142857,125.92148571428572L288.72180451127815,125.23294285714287L291.7293233082707,124.55802857142858L294.7368421052631,123.93934285714285L297.74436090225566,123.41340000000001L300.7518796992481,122.77551428571428L303.7593984962406,121.9876285714286L306.76691729323306,121.40048571428571L309.77443609022555,120.85620000000002L312.78195488721803,120.32262857142855L315.7894736842105,119.7252857142857L318.796992481203,119.05011428571427L321.8045112781955,118.53668571428572L324.812030075188,117.92802857142858L327.81954887218046,117.1745142857143L330.8270676691729,116.556L333.83458646616543,115.73245714285716L336.84210526315786,115.13374285714286L339.8496240601504,114.61200000000001L342.85714285714283,114.05811428571427L345.8646616541353,113.4533142857143L348.8721804511278,112.94194285714285L351.8796992481203,112.45611428571426L354.8872180451128,112.02231428571429L357.89473684210526,111.44579999999999L360.90225563909775,110.86997142857142L363.90977443609023,110.31282857142855L366.91729323308266,109.69431428571428L369.9248120300752,109.16588571428572L372.93233082706763,108.58577142857142L375.9398496240602,106.60688571428571L378.9473684210526,105.40165714285715L381.9548872180451,104.43908571428572L384.9624060150376,103.6314857142857L387.96992481203006,102.15317142857143L390.97744360902254,100.0428857142857L393.98496240601503,98.83988571428571L396.9924812030075,97.7904L400,97.00045714285714" stroke="#4c78a8" stroke-width="2"/></g></g><path class="foreground" aria-hidden="true" d="" display="none"/></g></g></g></svg>